<?xml version="1.0" standalone="no"?>
<!DOCTYPE svg PUBLIC "-//W3C//DTD SVG 20010904//EN"
 "http://www.w3.org/TR/2001/REC-SVG-20010904/DTD/svg10.dtd">
<svg version="1.0" xmlns="http://www.w3.org/2000/svg"
 width="260.000000pt" height="260.000000pt" viewBox="0 0 260.000000 260.000000"
 preserveAspectRatio="xMidYMid meet">
<metadata>
Created by potrace 1.14, written by Peter Selinger 2001-2017
</metadata>
<g transform="translate(0.000000,260.000000) scale(0.100000,-0.100000)"
fill="#000000" stroke="none">
<path d="M395 2459 c-98 -37 -168 -141 -166 -247 4 -192 202 -312 375 -228 52
25 116 89 116 116 0 8 50 10 188 8 182 -3 188 -4 220 -28 54 -40 64 -70 67
-200 2 -88 6 -122 19 -142 18 -27 55 -48 88 -48 32 0 85 38 95 68 16 46 8 251
-11 309 -32 95 -101 174 -196 220 -53 27 -61 28 -255 31 -192 3 -201 4 -215
25 -81 117 -205 162 -325 116z"/>
<path d="M2024 1771 c-58 -23 -102 -58 -130 -102 l-24 -39 -180 0 c-157 0
-189 -3 -243 -21 -111 -37 -194 -121 -232 -233 -28 -83 -29 -288 -2 -330 35
-53 108 -61 156 -17 17 16 32 35 32 43 1 7 2 61 3 119 3 121 17 164 69 201 30
22 43 23 212 26 l180 3 35 -47 c52 -70 123 -107 208 -107 76 1 124 18 177 65
140 122 99 363 -74 435 -51 22 -138 24 -187 4z"/>
<path d="M397 1076 c-177 -64 -226 -294 -90 -429 55 -55 97 -72 183 -72 105 0
152 28 240 141 6 8 63 11 183 10 l174 -1 37 -28 c69 -53 69 -55 71 -291 1
-193 3 -215 21 -239 43 -59 125 -59 169 1 19 25 20 42 19 242 0 176 -3 225
-18 270 -34 106 -126 201 -231 237 -40 13 -88 17 -235 17 l-185 1 -35 47 c-54
73 -120 106 -210 107 -30 0 -72 -6 -93 -13z"/>
</g>
</svg>
