<?xml version="1.0" encoding="utf-8"?>
<!-- Generator: Adobe Illustrator 24.0.0, SVG Export Plug-In . SVG Version: 6.00 Build 0)  -->
<svg version="1.1" id="Layer_1" xmlns="http://www.w3.org/2000/svg" xmlns:xlink="http://www.w3.org/1999/xlink" x="0px" y="0px"
	 viewBox="0 0 571.3 569.2" style="enable-background:new 0 0 571.3 569.2;" xml:space="preserve">
<style type="text/css">
	.st0{fill:#1D1D1B;}
	.st1{fill:#FFFFFF;}
</style>
<g>
	<path class="st0" d="M565,285.6C565,439.9,439.9,565,285.6,565C131.4,565,6.3,439.9,6.3,285.6S131.4,6.3,285.6,6.3
		C439.9,6.3,565,131.4,565,285.6"/>
</g>
<g>
	<path class="st1" d="M69.3,275.4c-1.6-0.1-2.7-1.5-2.6-3c0.1-1.4,1.4-2.7,3-2.6c1.6,0.1,2.7,1.6,2.6,3
		C72.3,274.3,71,275.5,69.3,275.4"/>
	<polyline class="st1" points="52.1,232.1 52.2,231.9 80.9,221.1 64.3,195.4 64.4,195.1 104.1,208.3 103,211.8 72.4,201.7 
		86.2,222.8 86.1,223 62.4,231.6 93,241.7 91.8,245.2 52.1,232.1 	"/>
	<path class="st1" d="M111.6,192.9l-2.1,3.3l-26.3-36.9l0.2-0.2l44.8,7.8l-2.2,3.4l-7.5-1.4l-11.3,17.9L111.6,192.9 M90.6,163.7
		l14.3,19.9l9.8-15.5C114.7,168.1,90.6,163.7,90.6,163.7z"/>
	<path class="st1" d="M118.2,145.8c-8.6-8.6-8.3-21.3,0-29.5c4.9-4.9,10.8-6.7,16.9-5.9l-0.6,3.7c-5-0.7-9.7,0.7-13.8,4.8
		c-6.8,6.7-6.5,16.9,0.5,24c7.1,7.2,17.4,7.3,24.3,0.5c4.2-4.1,5.9-9.2,5.1-14.6l3.7-0.6c0.9,6.6-1.2,12.7-6.4,17.8
		C139.5,154.3,126.7,154.5,118.2,145.8"/>
	<path class="st1" d="M169.1,103.3c-0.9-1.4-0.4-3.1,0.9-3.9c1.2-0.8,3-0.5,3.9,0.9c0.9,1.4,0.3,3.1-0.9,3.9
		C171.7,105.1,170,104.7,169.1,103.3"/>
	<path class="st1" d="M204.8,95.7c3.4,3.1,7.7,4.1,12.3,2.4c5.3-1.9,7.5-5.6,6-9.6c-1.5-4.3-4.8-5.2-10.3-5.7l-3.7-0.4
		c-6.5-0.6-10.8-1.9-12.7-7.3c-2-5.5,1-10.7,6.6-12.7c4.8-1.7,8.8-1.1,12.6,1.9l-2.2,2.8c-2.8-2.3-5.7-2.8-9.2-1.5
		c-3.8,1.4-5.5,4.7-4.3,8.1c1.3,3.7,3.9,4.3,9.4,4.8l3.7,0.3c7.3,0.7,11.5,2.4,13.6,8.2c2.3,6.3-1.2,11.8-8.4,14.4
		c-6.3,2.3-11.9,0.8-16.1-3L204.8,95.7"/>
	<polyline class="st1" points="232.3,53.5 236.6,52.8 253.1,74.8 262.7,49 266.7,48.4 255.6,78.5 257.5,91.2 253.6,91.7 251.7,79 
		232.3,53.5 	"/>
	<path class="st1" d="M284.5,79.3c1.9,4.2,5.5,6.8,10.4,7c5.6,0.3,9.1-2.3,9.3-6.5c0.3-4.5-2.4-6.7-7.2-9.3l-3.2-1.8
		c-5.7-3.1-9.2-5.9-8.8-11.7c0.3-5.8,5.1-9.5,11.1-9.1c5.1,0.3,8.6,2.4,10.9,6.6l-3.1,1.8c-1.7-3.2-4.1-4.8-7.9-5
		c-4-0.2-6.9,2.2-7.1,5.8c-0.2,3.9,1.9,5.5,6.8,8.1l3.2,1.7c6.4,3.5,9.7,6.7,9.3,12.8c-0.4,6.7-5.7,10.4-13.4,10
		c-6.7-0.4-11.3-3.9-13.6-9L284.5,79.3"/>
	<path class="st1" d="M337.2,75.6c0.4-1.6,2-2.4,3.5-2c1.4,0.4,2.4,1.9,2,3.5c-0.4,1.6-2.1,2.4-3.5,2
		C337.7,78.7,336.8,77.2,337.2,75.6"/>
	<path class="st1" d="M361.4,103.6l-3.5-1.8l34.7-29.2l0.3,0.1l-4,45.1l-3.6-1.9l0.8-7.6l-18.8-9.7L361.4,103.6 M388.8,80.3
		l-18.7,15.9l16.3,8.4C386.5,104.7,388.8,80.3,388.8,80.3z"/>
	<path class="st1" d="M426.2,93.8l7.9,6.6c10.4,8.7,11.2,20.3,3.5,29.6c-7.8,9.3-19.3,10.6-29.8,1.9l-7.9-6.6L426.2,93.8
		 M409.8,128.8c9.3,7.8,18.2,6.1,24.6-1.5c6.4-7.6,6.4-16.7-2.9-24.4l-4.6-3.8l-21.7,26L409.8,128.8z"/>
	<polyline class="st1" points="466,128.5 466.1,128.7 458,158.2 488.7,159.8 488.8,160.1 454.8,184.5 452.6,181.4 478.8,162.7 
		453.5,161.4 453.4,161.2 460.4,137.1 434.2,155.9 432,152.9 466,128.5 	"/>
	<polyline class="st1" points="498.8,181 500.5,184.6 463.4,202.1 461.7,198.5 498.8,181 	"/>
	<polyline class="st1" points="501.9,210 470.8,218.6 469.8,215.1 510.2,203.9 510.3,204.3 485.7,239.6 516.8,231 517.8,234.6 
		477.5,245.7 477.4,245.4 501.9,210 	"/>
	<path class="st1" d="M500.6,270c1.6-0.1,2.9,1.2,3,2.7c0.1,1.4-1,2.9-2.7,3c-1.6,0.1-2.9-1.2-3-2.7
		C497.8,271.5,499,270.1,500.6,270"/>
	<path class="st1" d="M95,392.6c9.7-7.3,22.3-5.3,29.3,3.8c4.3,5.7,5.2,11,4.2,16.1l-3.7-0.6c0.8-4.1,0.4-8.4-3.4-13.4
		c-5.8-7.6-16-8.6-23.9-2.6c-7.9,6-9.5,16.3-3.4,24.3c3.6,4.8,7.3,6.7,10.7,7.5l5.1-3.9l-7.5-9.8l2.8-2.1l9.7,12.8l-9.4,7.1
		c-4.9-1-9.7-3.3-14.4-9.4C83.9,412.8,85.3,400,95,392.6"/>
	<path class="st1" d="M126.1,432.9c7.7-9.4,20.6-10.3,29.6-3c9,7.3,10.7,20.1,3,29.5c-7.7,9.4-20.6,10.3-29.6,3
		C120.1,455.1,118.4,442.3,126.1,432.9 M155.5,456.8c6.3-7.7,5.5-18-2.1-24.2c-7.6-6.2-17.9-4.9-24.2,2.8c-6.3,7.7-5.5,18,2.1,24.2
		C138.9,465.8,149.2,464.6,155.5,456.8z"/>
	<polyline class="st1" points="184.1,454.5 172.7,448.8 174.3,445.7 200.5,458.8 198.9,462 187.6,456.3 170.7,489.8 167.2,488 
		184.1,454.5 	"/>
	<polyline class="st1" points="235.3,470.7 239,471.7 228.3,511.3 224.5,510.3 228.1,497.2 206.5,491.4 202.9,504.5 199.1,503.4 
		209.9,463.9 213.7,464.9 207.4,488.1 229,493.9 235.3,470.7 	"/>
	<polyline class="st1" points="252.3,474.7 276.9,476.4 276.7,479.9 255.9,478.4 254.4,498.9 273,500.2 272.7,503.6 254.2,502.3 
		253.4,512.3 275,513.8 274.8,517.3 249.3,515.5 252.3,474.7 	"/>
	<polyline class="st1" points="291.4,485.5 295.3,517.4 291.6,517.9 286.6,476.4 286.9,476.4 318.4,505.8 314.4,473.8 318.1,473.3 
		323.2,514.8 322.8,514.8 291.4,485.5 	"/>
	<path class="st1" d="M330.7,470.9l12.7-4.4c7.3-2.5,12.3,0.4,14.2,5.7c1.3,3.7,0.4,6.9-2.3,9.5c5.4-0.4,9.8,2.2,11.6,7.4
		c2.2,6.3-0.2,12.7-8.6,15.6l-14.1,4.9L330.7,470.9 M356.7,501.5c6.4-2.2,7.9-6.6,6.3-11.2c-1.6-4.7-5.7-7.2-12-5l-10,3.5l5.6,16.3
		L356.7,501.5z M349.3,482.4c4.9-1.7,5.9-5,4.6-8.8c-1.2-3.5-4.3-5.5-9.6-3.7l-8.7,3l4.4,12.7L349.3,482.4z"/>
	<path class="st1" d="M380.5,481.5l-13.8-23.2l3.4-2l13.7,23c3.8,6.4,9.3,7.4,14.8,4.2c5.6-3.3,7.2-8.6,3.4-15l-13.7-23l3.4-2
		l13.8,23.2c4.9,8.2,2,15.5-5.1,19.8C393.2,490.7,385.3,489.7,380.5,481.5"/>
	<path class="st1" d="M448.7,449.9l-3.5,3.2l-13.1-2.3c-0.7,0.9-1.5,1.6-2.4,2.4l-3.7,3.4l6.9,7.6l-2.9,2.6l-27.5-30.3l6.6-6
		c8.3-7.5,17-6.5,22.9,0c4.4,4.9,5.6,11,2.4,16.9L448.7,449.9 M427.2,450.8c6.9-6.3,6.4-12.5,1.7-17.6c-4.6-5.1-10.8-6.3-17.7,0
		l-3.5,3.2l16,17.6L427.2,450.8z"/>
	<path class="st1" d="M444.9,426c-9.8-7.1-11.5-19.8-4.8-29.1c4.2-5.8,9.1-8.2,14.2-8.8l0.5,3.8c-4.2,0.5-8.2,2-11.9,7.2
		c-5.6,7.7-3.7,17.8,4.4,23.6c8.1,5.8,18.3,4.4,24.3-3.8c3.5-4.9,4.4-9,4.1-12.4l-5.2-3.8l-7.3,10l-2.8-2l9.5-13l9.5,6.9
		c0.5,5-0.4,10.2-4.9,16.5C467.5,430.7,454.8,433.1,444.9,426"/>
	<path class="st1" d="M285.5,449.9c-91.2,0-165.5-74-165.5-165c0-91,74.2-165,165.5-165c91.2,0,165.5,74,165.5,165
		C451,375.9,376.7,449.9,285.5,449.9 M285.5,123.5c-89.3,0-161.9,72.4-161.9,161.4c0,89,72.6,161.4,161.9,161.4
		c89.3,0,161.9-72.4,161.9-161.4C447.4,195.9,374.8,123.5,285.5,123.5z"/>
	<path class="st1" d="M383.6,312.8l2.7-8l-14.6-7.6c0.7-2.8,1.3-5.7,1.6-8.5l16.4-1.5l0.5-8.4l-16.1-3.6c-0.1-2.9-0.3-5.8-0.6-8.6
		l15.5-5.7l-1.7-8.3l-16.5,0.7c-0.8-2.8-1.8-5.5-2.8-8.1l13.5-9.6l-3.8-7.5l-15.8,4.9c-1.5-2.5-3.1-4.8-4.8-7.1l10.6-12.7l-5.6-6.3
		l-14,8.9c-2.1-2-4.2-3.9-6.5-5.6l6.9-15l-7-4.6l-11.2,12.2l0,0c-2.5-1.4-5.1-2.6-7.7-3.7l2.8-16.4l-8-2.7l-7.7,14.7l0,0
		c-2.8-0.7-5.6-1.2-8.4-1.6l-1.5-16.5l-8.4-0.5l-3.6,16.2c-2.9,0.1-5.8,0.2-8.6,0.6l-5.8-15.5l-8.3,1.7l0.7,16.5
		c-2.8,0.8-5.5,1.7-8.2,2.8l-9.6-13.5l-7.6,3.8l5,15.8c-2.5,1.5-4.9,3.1-7.2,4.8l-12.7-10.5l-6.3,5.6l8.8,13.9
		c-2,2.1-3.9,4.3-5.7,6.5l-15-6.8l-4.7,7l12.1,11.1c-1.4,2.5-2.7,5.1-3.8,7.8l-16.2-2.8l-2.7,8l14.6,7.6c-0.7,2.8-1.3,5.7-1.7,8.5
		l-16.3,1.5l-0.5,8.4l16,3.6c0,2.9,0.2,5.8,0.6,8.7l-15.3,5.7l1.7,8.2l16.3-0.7c0.8,2.8,1.8,5.6,2.9,8.3l-13.3,9.4l3.8,7.5l15.5-4.9
		c1.5,2.5,3.1,4.9,4.9,7.3l-10.4,12.5l5.6,6.3l13.7-8.7c2.1,2,4.3,4,6.7,5.8l-6.8,14.7l7,4.6l11-11.9c2.5,1.4,5.2,2.7,7.9,3.8
		l-2.7,16l8,2.7l7.5-14.4c2.9,0.7,5.8,1.3,8.7,1.7l1.5,16.1l8.4,0.5l3.5-15.8c3-0.1,5.9-0.3,8.8-0.6l5.6,15.2l8.3-1.7l-0.7-16.2
		c2.8-0.8,5.6-1.8,8.3-2.9l9.4,13.2l7.6-3.8l-4.9-15.5c2.5-1.5,4.9-3.1,7.3-4.9l12.5,10.4l6.3-5.6l-8.7-13.7c2-2.1,3.9-4.3,5.7-6.6
		l14.8,6.8l4.7-7l-12.1-11.1c1.4-2.5,2.7-5.1,3.8-7.8L383.6,312.8 M266.4,344c-12.7-4.3-23.5-11.8-31.6-21.3l25.8-18.3
		c4.3,4.4,9.6,7.8,15.8,9.9c6.2,2.1,12.6,2.5,18.7,1.5l9.5,30.1C292.3,348.7,279.2,348.3,266.4,344z M305.7,208.3l-10,29.9
		c-12.7-2.2-25.4,2-34.3,10.6l-25.5-18.8C252.9,210.9,279.6,201.9,305.7,208.3z M359.6,271.4l-31.7-0.3
		c-1.9-12.2-9.4-23.2-20.9-29.1l10-29.9C341.7,222.7,357.6,245.9,359.6,271.4z M316.1,342.2l-9.5-30.1c9-4.5,16.3-12.4,19.8-22.7
		c0.7-2.1,1.2-4.2,1.5-6.3l31.6,0.3c-0.5,5.3-1.6,10.7-3.4,16C349.4,319.6,334.4,334.7,316.1,342.2z M293.6,263
		c7.7,2.6,11.9,10.9,9.3,18.6c-2.6,7.7-10.9,11.9-18.7,9.3c-7.7-2.6-11.9-10.9-9.3-18.6C277.5,264.6,285.9,260.4,293.6,263z
		 M221.7,254.5c1.8-5.3,4.1-10.2,7-14.8l25.4,18.8c-1,1.9-1.9,3.9-2.6,6c-3.5,10.3-2.4,21.1,2.1,30.1l-25.7,18.3
		C217.8,295.9,214.9,274.7,221.7,254.5z"/>
	<path class="st1" d="M443.8,284.9c0-87-71-157.9-158.3-157.9c-87.3,0-158.3,70.8-158.3,157.9s71,157.8,158.3,157.8
		C372.8,442.7,443.8,371.9,443.8,284.9 M151.2,361.4c-4.3-7.4-8-15.2-11-23.3c12.2-4,25.8-3.9,38.5,0.9l-11.2,23.1
		C162.1,360.4,156.5,360.3,151.2,361.4z M187.6,343.3c18.7,11.1,29.1,31.4,28,52.2l-25.5-3.5c-0.2-10-5.2-19.7-13.8-25.6
		L187.6,343.3z M209.2,419c-7.5-4.3-14.7-9.1-21.3-14.6c0.4-0.9,0.7-1.9,1-2.8l25.4,3.5c-1,4.2-2.4,8.4-4.4,12.5
		C209.6,418.1,209.4,418.5,209.2,419z M440.2,284.9c0,85.1-69.4,154.3-154.7,154.3c-20.5,0-40-4-57.9-11.3c0.9-1.7,1.7-3.4,2.5-5.2
		l-7.5-5.2c0.9-2.2,1.6-4.4,2.2-6.7l9.1,0.3c0.7-2.6,1.2-5.3,1.5-8l-8.5-3.1c0.3-2.3,0.4-4.7,0.4-7l8.9-2c0-2.8-0.2-5.5-0.6-8.2
		l-9.1-0.8c-0.4-2.3-0.8-4.6-1.4-6.9l8.1-4.3c-0.8-2.6-1.6-5.2-2.7-7.7l-9.1,1.6c-0.9-2.1-2-4.2-3.1-6.2l6.7-6.3
		c-1.4-2.3-3-4.6-4.6-6.8l-8.3,3.9c-1.5-1.8-3-3.5-4.7-5.2l4.9-7.8c-2-1.9-4-3.7-6.2-5.4l-7,5.9l0,0c-1.9-1.4-3.8-2.6-5.9-3.8
		l2.7-8.8c-2.4-1.3-4.8-2.5-7.4-3.6l-5.3,7.5l0,0c-2.2-0.9-4.4-1.6-6.6-2.2l0.3-9.2c-2.6-0.7-5.3-1.2-8-1.5l-3.1,8.6
		c-2.3-0.3-4.7-0.4-7-0.4l-2.1-8.9c-2.8,0.1-5.5,0.2-8.2,0.6l-0.8,9.1c-2.3,0.4-4.6,0.8-6.9,1.4l-4.3-8.1c-0.7,0.2-1.3,0.4-2,0.6
		c-2.4-10.8-3.7-21.9-3.7-33.4c0-85.1,69.4-154.3,154.7-154.3C370.8,130.6,440.2,199.8,440.2,284.9z"/>
	<path class="st1" d="M285.5,550.7C138,550.7,18.9,432,18.9,284.9C18.9,137.8,138,19.1,285.5,19.1c147.5,0,266.6,118.7,266.6,265.8
		C552.1,432,433,550.7,285.5,550.7 M285.5,22.6c-145.5,0-263,117.1-263,262.3c0,145.1,117.5,262.3,263,262.3
		c145.5,0,263-117.1,263-262.3C548.5,139.7,431,22.6,285.5,22.6z"/>
	<path class="st1" d="M285.5,559.8C134,559.8,9.8,435.9,9.8,284.9S134,10,285.5,10C437,10,561.1,133.8,561.1,284.9
		S437,559.8,285.5,559.8 M285.5,13.6C136,13.6,13.4,135.8,13.4,284.9C13.4,434,136,556.2,285.5,556.2
		c149.5,0,272.1-122.2,272.1-271.3C557.6,135.8,435,13.6,285.5,13.6z"/>
</g>
</svg>
